<mxfile host="app.diagrams.net" modified="2024-06-19T10:13:06.618Z" agent="Mozilla/5.0 (Windows NT 10.0; Win64; x64) AppleWebKit/537.36 (KHTML, like Gecko) Chrome/126.0.0.0 Safari/537.36 Edg/126.0.0.0" etag="WLGl7Vdw4p5p182A6bnJ" version="24.5.5" type="device">
  <diagram id="C5RBs43oDa-KdzZeNtuy" name="Page-1">
    <mxGraphModel dx="1577" dy="3057" grid="1" gridSize="10" guides="1" tooltips="1" connect="1" arrows="1" fold="1" page="1" pageScale="1" pageWidth="827" pageHeight="1169" math="0" shadow="0">
      <root>
        <mxCell id="WIyWlLk6GJQsqaUBKTNV-0" />
        <mxCell id="WIyWlLk6GJQsqaUBKTNV-1" parent="WIyWlLk6GJQsqaUBKTNV-0" />
        <mxCell id="MEdTHoDNRowPNIOllLY4-3" value="" style="edgeStyle=orthogonalEdgeStyle;rounded=0;orthogonalLoop=1;jettySize=auto;html=1;" edge="1" parent="WIyWlLk6GJQsqaUBKTNV-1" source="MEdTHoDNRowPNIOllLY4-0" target="MEdTHoDNRowPNIOllLY4-2">
          <mxGeometry relative="1" as="geometry" />
        </mxCell>
        <mxCell id="MEdTHoDNRowPNIOllLY4-0" value="input&lt;br&gt;E_q1 = queue.Queue(maxsize = 3000)&lt;br&gt;&lt;div&gt;&lt;span style=&quot;background-color: initial;&quot;&gt;E_q2 = queue.Queue(maxsize = 3000)&amp;nbsp;&lt;/span&gt;&lt;/div&gt;&lt;div&gt;&lt;span style=&quot;background-color: initial;&quot;&gt;A_q1 = queue.Queue(maxsize = 300)&amp;nbsp;&lt;/span&gt;&lt;/div&gt;&lt;div&gt;&lt;span style=&quot;background-color: initial;&quot;&gt;A_q2 = queue.Queue(maxsize = 300)&amp;nbsp;&lt;/span&gt;&amp;nbsp;&lt;/div&gt;" style="shape=parallelogram;perimeter=parallelogramPerimeter;whiteSpace=wrap;html=1;fixedSize=1;" vertex="1" parent="WIyWlLk6GJQsqaUBKTNV-1">
          <mxGeometry x="300" y="-1160" width="276" height="90" as="geometry" />
        </mxCell>
        <mxCell id="MEdTHoDNRowPNIOllLY4-24" value="" style="edgeStyle=orthogonalEdgeStyle;rounded=0;orthogonalLoop=1;jettySize=auto;html=1;" edge="1" parent="WIyWlLk6GJQsqaUBKTNV-1" source="MEdTHoDNRowPNIOllLY4-2" target="MEdTHoDNRowPNIOllLY4-23">
          <mxGeometry relative="1" as="geometry" />
        </mxCell>
        <mxCell id="MEdTHoDNRowPNIOllLY4-2" value="data received from main.c (TCP)&lt;br&gt;unpacked&lt;br&gt;data=ECG+ACC" style="whiteSpace=wrap;html=1;aspect=fixed;" vertex="1" parent="WIyWlLk6GJQsqaUBKTNV-1">
          <mxGeometry x="387" y="-1040" width="102" height="102" as="geometry" />
        </mxCell>
        <mxCell id="MEdTHoDNRowPNIOllLY4-57" style="edgeStyle=orthogonalEdgeStyle;rounded=0;orthogonalLoop=1;jettySize=auto;html=1;entryX=0.529;entryY=0;entryDx=0;entryDy=0;entryPerimeter=0;exitX=1;exitY=0.5;exitDx=0;exitDy=0;" edge="1" parent="WIyWlLk6GJQsqaUBKTNV-1" source="MEdTHoDNRowPNIOllLY4-4" target="MEdTHoDNRowPNIOllLY4-55">
          <mxGeometry relative="1" as="geometry">
            <mxPoint x="580" y="-780" as="targetPoint" />
          </mxGeometry>
        </mxCell>
        <mxCell id="MEdTHoDNRowPNIOllLY4-4" value="&lt;div&gt;Update sample variables&lt;/div&gt;ecg_sample = [data.ECG]&lt;div&gt;acc_sample = [data.ACC]&lt;/div&gt;" style="rounded=0;whiteSpace=wrap;html=1;" vertex="1" parent="WIyWlLk6GJQsqaUBKTNV-1">
          <mxGeometry x="357" y="-850" width="173" height="60" as="geometry" />
        </mxCell>
        <mxCell id="MEdTHoDNRowPNIOllLY4-14" value="" style="edgeStyle=orthogonalEdgeStyle;rounded=0;orthogonalLoop=1;jettySize=auto;html=1;" edge="1" parent="WIyWlLk6GJQsqaUBKTNV-1" source="MEdTHoDNRowPNIOllLY4-6" target="MEdTHoDNRowPNIOllLY4-9">
          <mxGeometry relative="1" as="geometry" />
        </mxCell>
        <mxCell id="MEdTHoDNRowPNIOllLY4-6" value="currentq = q1&lt;div&gt;indicator = 1&lt;/div&gt;&lt;div&gt;permission = 0&lt;/div&gt;" style="rounded=0;whiteSpace=wrap;html=1;" vertex="1" parent="WIyWlLk6GJQsqaUBKTNV-1">
          <mxGeometry x="995" y="-1040" width="120" height="60" as="geometry" />
        </mxCell>
        <mxCell id="MEdTHoDNRowPNIOllLY4-8" value="" style="edgeStyle=orthogonalEdgeStyle;rounded=0;orthogonalLoop=1;jettySize=auto;html=1;" edge="1" parent="WIyWlLk6GJQsqaUBKTNV-1" source="MEdTHoDNRowPNIOllLY4-7" target="MEdTHoDNRowPNIOllLY4-6">
          <mxGeometry relative="1" as="geometry" />
        </mxCell>
        <mxCell id="MEdTHoDNRowPNIOllLY4-13" value="YES" style="edgeLabel;html=1;align=center;verticalAlign=middle;resizable=0;points=[];" vertex="1" connectable="0" parent="MEdTHoDNRowPNIOllLY4-8">
          <mxGeometry x="0.0196" y="-2" relative="1" as="geometry">
            <mxPoint x="-13" as="offset" />
          </mxGeometry>
        </mxCell>
        <mxCell id="MEdTHoDNRowPNIOllLY4-42" value="" style="edgeStyle=orthogonalEdgeStyle;rounded=0;orthogonalLoop=1;jettySize=auto;html=1;" edge="1" parent="WIyWlLk6GJQsqaUBKTNV-1" source="MEdTHoDNRowPNIOllLY4-7">
          <mxGeometry relative="1" as="geometry">
            <mxPoint x="1230" y="-700" as="targetPoint" />
          </mxGeometry>
        </mxCell>
        <mxCell id="MEdTHoDNRowPNIOllLY4-48" value="NO" style="edgeLabel;html=1;align=center;verticalAlign=middle;resizable=0;points=[];" vertex="1" connectable="0" parent="MEdTHoDNRowPNIOllLY4-42">
          <mxGeometry x="-0.7975" y="-2" relative="1" as="geometry">
            <mxPoint x="-2" y="8" as="offset" />
          </mxGeometry>
        </mxCell>
        <mxCell id="MEdTHoDNRowPNIOllLY4-7" value="If sample updated" style="rhombus;whiteSpace=wrap;html=1;" vertex="1" parent="WIyWlLk6GJQsqaUBKTNV-1">
          <mxGeometry x="970" y="-1160" width="170" height="80" as="geometry" />
        </mxCell>
        <mxCell id="MEdTHoDNRowPNIOllLY4-17" value="" style="edgeStyle=orthogonalEdgeStyle;rounded=0;orthogonalLoop=1;jettySize=auto;html=1;" edge="1" parent="WIyWlLk6GJQsqaUBKTNV-1" source="MEdTHoDNRowPNIOllLY4-9" target="MEdTHoDNRowPNIOllLY4-16">
          <mxGeometry relative="1" as="geometry" />
        </mxCell>
        <mxCell id="MEdTHoDNRowPNIOllLY4-18" value="YES" style="edgeLabel;html=1;align=center;verticalAlign=middle;resizable=0;points=[];" vertex="1" connectable="0" parent="MEdTHoDNRowPNIOllLY4-17">
          <mxGeometry x="0.1464" y="-2" relative="1" as="geometry">
            <mxPoint x="-13" y="-4" as="offset" />
          </mxGeometry>
        </mxCell>
        <mxCell id="MEdTHoDNRowPNIOllLY4-37" value="" style="edgeStyle=orthogonalEdgeStyle;rounded=0;orthogonalLoop=1;jettySize=auto;html=1;" edge="1" parent="WIyWlLk6GJQsqaUBKTNV-1" source="MEdTHoDNRowPNIOllLY4-9" target="MEdTHoDNRowPNIOllLY4-36">
          <mxGeometry relative="1" as="geometry" />
        </mxCell>
        <mxCell id="MEdTHoDNRowPNIOllLY4-49" value="NO" style="edgeLabel;html=1;align=center;verticalAlign=middle;resizable=0;points=[];" vertex="1" connectable="0" parent="MEdTHoDNRowPNIOllLY4-37">
          <mxGeometry x="-0.6046" y="-1" relative="1" as="geometry">
            <mxPoint x="-4" y="-9" as="offset" />
          </mxGeometry>
        </mxCell>
        <mxCell id="MEdTHoDNRowPNIOllLY4-9" value="if currentq.full()" style="rhombus;whiteSpace=wrap;html=1;" vertex="1" parent="WIyWlLk6GJQsqaUBKTNV-1">
          <mxGeometry x="992" y="-940" width="126" height="80" as="geometry" />
        </mxCell>
        <mxCell id="MEdTHoDNRowPNIOllLY4-22" value="" style="edgeStyle=orthogonalEdgeStyle;rounded=0;orthogonalLoop=1;jettySize=auto;html=1;" edge="1" parent="WIyWlLk6GJQsqaUBKTNV-1" source="MEdTHoDNRowPNIOllLY4-16" target="MEdTHoDNRowPNIOllLY4-19">
          <mxGeometry relative="1" as="geometry" />
        </mxCell>
        <mxCell id="MEdTHoDNRowPNIOllLY4-16" value="currentq = q2&lt;div&gt;indicator = 2&lt;/div&gt;&lt;div&gt;permission = 1&lt;/div&gt;" style="rounded=0;whiteSpace=wrap;html=1;" vertex="1" parent="WIyWlLk6GJQsqaUBKTNV-1">
          <mxGeometry x="995" y="-830" width="120" height="60" as="geometry" />
        </mxCell>
        <mxCell id="MEdTHoDNRowPNIOllLY4-21" value="" style="edgeStyle=orthogonalEdgeStyle;rounded=0;orthogonalLoop=1;jettySize=auto;html=1;" edge="1" parent="WIyWlLk6GJQsqaUBKTNV-1" source="MEdTHoDNRowPNIOllLY4-19" target="MEdTHoDNRowPNIOllLY4-20">
          <mxGeometry relative="1" as="geometry" />
        </mxCell>
        <mxCell id="MEdTHoDNRowPNIOllLY4-34" value="YES" style="edgeLabel;html=1;align=center;verticalAlign=middle;resizable=0;points=[];" vertex="1" connectable="0" parent="MEdTHoDNRowPNIOllLY4-21">
          <mxGeometry x="-0.1381" y="1" relative="1" as="geometry">
            <mxPoint x="11" y="3" as="offset" />
          </mxGeometry>
        </mxCell>
        <mxCell id="MEdTHoDNRowPNIOllLY4-32" value="" style="edgeStyle=orthogonalEdgeStyle;rounded=0;orthogonalLoop=1;jettySize=auto;html=1;" edge="1" parent="WIyWlLk6GJQsqaUBKTNV-1" source="MEdTHoDNRowPNIOllLY4-19" target="MEdTHoDNRowPNIOllLY4-31">
          <mxGeometry relative="1" as="geometry" />
        </mxCell>
        <mxCell id="MEdTHoDNRowPNIOllLY4-35" value="NO" style="edgeLabel;html=1;align=center;verticalAlign=middle;resizable=0;points=[];" vertex="1" connectable="0" parent="MEdTHoDNRowPNIOllLY4-32">
          <mxGeometry x="-0.1114" y="-1" relative="1" as="geometry">
            <mxPoint y="9" as="offset" />
          </mxGeometry>
        </mxCell>
        <mxCell id="MEdTHoDNRowPNIOllLY4-19" value="if currentq.empty()" style="rhombus;whiteSpace=wrap;html=1;" vertex="1" parent="WIyWlLk6GJQsqaUBKTNV-1">
          <mxGeometry x="992" y="-740" width="126" height="80" as="geometry" />
        </mxCell>
        <mxCell id="MEdTHoDNRowPNIOllLY4-33" style="edgeStyle=orthogonalEdgeStyle;rounded=0;orthogonalLoop=1;jettySize=auto;html=1;entryX=0.5;entryY=1;entryDx=0;entryDy=0;" edge="1" parent="WIyWlLk6GJQsqaUBKTNV-1" source="MEdTHoDNRowPNIOllLY4-20" target="MEdTHoDNRowPNIOllLY4-31">
          <mxGeometry relative="1" as="geometry" />
        </mxCell>
        <mxCell id="MEdTHoDNRowPNIOllLY4-20" value="currentq.put(sample)" style="rounded=0;whiteSpace=wrap;html=1;" vertex="1" parent="WIyWlLk6GJQsqaUBKTNV-1">
          <mxGeometry x="985" y="-624" width="140" height="40" as="geometry" />
        </mxCell>
        <mxCell id="MEdTHoDNRowPNIOllLY4-25" value="" style="edgeStyle=orthogonalEdgeStyle;rounded=0;orthogonalLoop=1;jettySize=auto;html=1;" edge="1" parent="WIyWlLk6GJQsqaUBKTNV-1" source="MEdTHoDNRowPNIOllLY4-23" target="MEdTHoDNRowPNIOllLY4-4">
          <mxGeometry relative="1" as="geometry" />
        </mxCell>
        <mxCell id="MEdTHoDNRowPNIOllLY4-23" value="1" style="ellipse;whiteSpace=wrap;html=1;aspect=fixed;" vertex="1" parent="WIyWlLk6GJQsqaUBKTNV-1">
          <mxGeometry x="418" y="-910" width="40" height="40" as="geometry" />
        </mxCell>
        <mxCell id="MEdTHoDNRowPNIOllLY4-31" value="1" style="ellipse;whiteSpace=wrap;html=1;" vertex="1" parent="WIyWlLk6GJQsqaUBKTNV-1">
          <mxGeometry x="1190" y="-725" width="54" height="50" as="geometry" />
        </mxCell>
        <mxCell id="MEdTHoDNRowPNIOllLY4-39" style="edgeStyle=elbowEdgeStyle;rounded=0;orthogonalLoop=1;jettySize=auto;html=1;entryX=0;entryY=0.5;entryDx=0;entryDy=0;exitX=0;exitY=0.5;exitDx=0;exitDy=0;" edge="1" parent="WIyWlLk6GJQsqaUBKTNV-1" source="MEdTHoDNRowPNIOllLY4-36" target="MEdTHoDNRowPNIOllLY4-7">
          <mxGeometry relative="1" as="geometry">
            <mxPoint x="890" y="-1090" as="targetPoint" />
            <mxPoint x="800" y="-900" as="sourcePoint" />
            <Array as="points">
              <mxPoint x="780" y="-1000" />
            </Array>
          </mxGeometry>
        </mxCell>
        <mxCell id="MEdTHoDNRowPNIOllLY4-36" value="currentq.put(sample)" style="rounded=0;whiteSpace=wrap;html=1;" vertex="1" parent="WIyWlLk6GJQsqaUBKTNV-1">
          <mxGeometry x="810" y="-920" width="140" height="40" as="geometry" />
        </mxCell>
        <mxCell id="MEdTHoDNRowPNIOllLY4-52" value="" style="edgeStyle=orthogonalEdgeStyle;rounded=0;orthogonalLoop=1;jettySize=auto;html=1;" edge="1" parent="WIyWlLk6GJQsqaUBKTNV-1" source="MEdTHoDNRowPNIOllLY4-51" target="MEdTHoDNRowPNIOllLY4-7">
          <mxGeometry relative="1" as="geometry" />
        </mxCell>
        <mxCell id="MEdTHoDNRowPNIOllLY4-51" value="2" style="ellipse;whiteSpace=wrap;html=1;aspect=fixed;" vertex="1" parent="WIyWlLk6GJQsqaUBKTNV-1">
          <mxGeometry x="1015" y="-1260" width="80" height="80" as="geometry" />
        </mxCell>
        <mxCell id="MEdTHoDNRowPNIOllLY4-60" value="" style="edgeStyle=orthogonalEdgeStyle;rounded=0;orthogonalLoop=1;jettySize=auto;html=1;" edge="1" parent="WIyWlLk6GJQsqaUBKTNV-1" source="MEdTHoDNRowPNIOllLY4-53" target="MEdTHoDNRowPNIOllLY4-58">
          <mxGeometry relative="1" as="geometry" />
        </mxCell>
        <mxCell id="MEdTHoDNRowPNIOllLY4-53" value="sample = ecg_sample&lt;div&gt;q1 =&amp;nbsp; E_q1&lt;/div&gt;&lt;div&gt;q2 = E_q2&lt;/div&gt;&lt;div&gt;&lt;div&gt;indicator = E_ind&lt;/div&gt;&lt;div&gt;permission = E_per&lt;/div&gt;&lt;/div&gt;" style="shape=parallelogram;perimeter=parallelogramPerimeter;whiteSpace=wrap;html=1;fixedSize=1;" vertex="1" parent="WIyWlLk6GJQsqaUBKTNV-1">
          <mxGeometry x="160" y="-780" width="170" height="80" as="geometry" />
        </mxCell>
        <mxCell id="MEdTHoDNRowPNIOllLY4-54" style="edgeStyle=orthogonalEdgeStyle;rounded=0;orthogonalLoop=1;jettySize=auto;html=1;entryX=0.572;entryY=-0.029;entryDx=0;entryDy=0;entryPerimeter=0;" edge="1" parent="WIyWlLk6GJQsqaUBKTNV-1" source="MEdTHoDNRowPNIOllLY4-4" target="MEdTHoDNRowPNIOllLY4-53">
          <mxGeometry relative="1" as="geometry" />
        </mxCell>
        <mxCell id="MEdTHoDNRowPNIOllLY4-61" value="" style="edgeStyle=orthogonalEdgeStyle;rounded=0;orthogonalLoop=1;jettySize=auto;html=1;" edge="1" parent="WIyWlLk6GJQsqaUBKTNV-1" source="MEdTHoDNRowPNIOllLY4-55" target="MEdTHoDNRowPNIOllLY4-59">
          <mxGeometry relative="1" as="geometry" />
        </mxCell>
        <mxCell id="MEdTHoDNRowPNIOllLY4-55" value="sample = acc_sample&lt;div&gt;q1 =&amp;nbsp; A_q1&lt;/div&gt;&lt;div&gt;q2 = A_q2&lt;/div&gt;&lt;div&gt;&lt;div&gt;indicator = A_ind&lt;/div&gt;&lt;div&gt;permission = A_per&lt;/div&gt;&lt;/div&gt;" style="shape=parallelogram;perimeter=parallelogramPerimeter;whiteSpace=wrap;html=1;fixedSize=1;" vertex="1" parent="WIyWlLk6GJQsqaUBKTNV-1">
          <mxGeometry x="500" y="-780" width="170" height="80" as="geometry" />
        </mxCell>
        <mxCell id="MEdTHoDNRowPNIOllLY4-58" value="2" style="ellipse;whiteSpace=wrap;html=1;aspect=fixed;" vertex="1" parent="WIyWlLk6GJQsqaUBKTNV-1">
          <mxGeometry x="220" y="-670" width="50" height="50" as="geometry" />
        </mxCell>
        <mxCell id="MEdTHoDNRowPNIOllLY4-59" value="2" style="ellipse;whiteSpace=wrap;html=1;aspect=fixed;" vertex="1" parent="WIyWlLk6GJQsqaUBKTNV-1">
          <mxGeometry x="560" y="-670" width="50" height="50" as="geometry" />
        </mxCell>
      </root>
    </mxGraphModel>
  </diagram>
</mxfile>
